<?xml version="1.0" encoding="UTF-8"?>
<svg version="1.1" viewBox="0 0 1013.8 513.08" xml:space="preserve" xmlns="http://www.w3.org/2000/svg">
<style type="text/css">
	.st0{fill:none;}
	.st1{fill:none;stroke:#FFFFFF;stroke-width:0;stroke-linecap:round;stroke-linejoin:round;}
	.st2{fill:none;stroke:#000000;stroke-width:6;stroke-linecap:round;stroke-linejoin:round;}
	.st3{stroke:#000000;stroke-width:2;stroke-linejoin:round;}
	.st4{fill:none;stroke:#000000;stroke-width:4;stroke-linecap:round;stroke-linejoin:round;}
	.st5{stroke:#000000;stroke-width:6;stroke-linecap:round;stroke-linejoin:round;}
	.st6{fill:#FFFFFF;}
	.st7{fill:none;stroke:#000000;stroke-width:7;stroke-linecap:round;stroke-linejoin:round;}
	.st8{fill:none;stroke:#000000;stroke-width:5.9353;stroke-linecap:round;stroke-linejoin:round;}
	.st9{fill:none;stroke:#000000;stroke-width:3.1415;stroke-linecap:round;stroke-linejoin:round;}
	.st10{fill:#FFFFFF;stroke:#000000;stroke-width:3.1415;stroke-linecap:round;stroke-linejoin:round;}
	.st11{fill:#C683A4;}
	.st12{fill:url(#a);}
	.st13{fill:url(#SVGID_00000152970132990568369790000006062426239399987131_);}
	.st14{fill:#B52168;}
	.st15{fill:#E9BED2;}
	.st16{fill:#EAEAEA;}
	.st17{fill:url(#SVGID_00000021102354994092807770000006844890381940085936_);}
	.st18{fill:url(#SVGID_00000175298364023617671690000014636002327891744679_);}
	.st19{fill:#619AFC;}
	.st20{fill:url(#SVGID_00000039135298797684473550000008259187253689316757_);}
	.st21{fill:url(#SVGID_00000023246904732164283890000007788566091718104716_);}
	.st22{fill:#E8F5FF;}
	.st23{opacity:0.3;fill:url(#SVGID_00000009555310250321540020000011662787094395988393_);}
	.st24{fill:url(#SVGID_00000023980343633847726380000008094496044928743589_);}
	.st25{fill:url(#SVGID_00000095300150231741228650000016098223890221648516_);}
	.st26{opacity:0.3;fill:url(#SVGID_00000061467214414914413880000007462630174981138594_);}
	.st27{opacity:0.5;fill:url(#SVGID_00000144332869538436940980000004291014181247165315_);}
	.st28{opacity:0.3;fill:url(#SVGID_00000152229774919866609410000005338539173676556963_);}
	.st29{opacity:0.3;fill:url(#SVGID_00000029763296518654723150000003972039157569603225_);}
	.st30{opacity:0.3;fill:url(#SVGID_00000168087418930143628740000007588791908567250334_);}
	.st31{opacity:0.3;fill:url(#SVGID_00000068678906114409728680000017997780046947741115_);}
	.st32{fill:url(#SVGID_00000158728853365815346310000010252111077197580161_);}
	.st33{fill:url(#SVGID_00000074437057793022454410000000814820993292403330_);}
	.st34{fill:url(#SVGID_00000054236450473492541580000007756040025038894761_);}
	.st35{fill:url(#SVGID_00000042700395734598073930000001391755698491047826_);}
	.st36{opacity:0.5;fill:url(#SVGID_00000011032038293986091970000009400928126864361116_);}
	.st37{opacity:0.5;fill:url(#SVGID_00000038383667672002238080000013685830579037770668_);}
	.st38{fill:#9FC7FC;}
	.st39{fill:url(#SVGID_00000091010982386805437990000011946069555716670874_);}
	.st40{opacity:0.3;fill:url(#SVGID_00000110463825304173316990000007001986622918938285_);}
	.st41{opacity:0.3;fill:url(#SVGID_00000088131776177138890480000014436104030144947873_);}
	.st42{opacity:0.3;fill:url(#SVGID_00000137093519155498862850000000858374553044660376_);}
	.st43{fill:url(#SVGID_00000137814825122938834800000009988849269646102172_);}
	.st44{fill:url(#SVGID_00000137815577720355472040000011803146726380070541_);}
	.st45{opacity:0.5;fill:url(#SVGID_00000162324859471493930180000010615793415705521842_);}
	.st46{opacity:0.3;fill:url(#SVGID_00000155132438424274969680000007153706018161040812_);}
	.st47{opacity:0.3;fill:url(#SVGID_00000083067569453445209290000003491091712411754420_);}
	.st48{opacity:0.3;fill:url(#SVGID_00000064339769287641375590000012025929548876305059_);}
	.st49{opacity:0.3;fill:url(#SVGID_00000170960782405141471000000000989652544222057398_);}
	.st50{fill:url(#SVGID_00000117647982018377888580000007892191990524156048_);}
	.st51{fill:url(#SVGID_00000116216286216236989960000007162353768994910112_);}
	.st52{fill:url(#SVGID_00000006706146733020783140000005241443784372607616_);}
	.st53{fill:url(#SVGID_00000013903036199426227540000015545933524503584431_);}
	.st54{opacity:0.5;fill:url(#SVGID_00000109727130563006770930000006361777893388605597_);}
	.st55{opacity:0.5;fill:url(#SVGID_00000019643946212916156330000013726460068037860781_);}
	.st56{fill:url(#SVGID_00000066473730542536865690000003823158222710482060_);}
	.st57{opacity:0.3;fill:url(#SVGID_00000093158155799405149470000006624672611272813213_);}
	.st58{opacity:0.3;fill:url(#SVGID_00000179625136240403424050000001221314027903833522_);}
	.st59{opacity:0.3;fill:url(#SVGID_00000159434384098898588170000001432854587805839010_);}
	.st60{fill:url(#SVGID_00000039116258561310616250000009088134736105239186_);}
	.st61{fill:url(#SVGID_00000113319653119431229950000002422165349704793773_);}
	.st62{opacity:0.5;fill:url(#SVGID_00000090277869015908243020000004550572896672157629_);}
	.st63{fill:#BDD1FC;}
	.st64{fill:#98B9FC;}
	.st65{fill:url(#SVGID_00000048464175715076726850000016076623207059304094_);}
	.st66{fill:url(#SVGID_00000082360345460843286720000016717338212327791006_);}
	.st67{fill:url(#SVGID_00000149368355198895252120000007928782932740240796_);}
	.st68{fill:url(#SVGID_00000066486867333849706980000009460075705797144760_);}
	.st69{opacity:0.5;fill:url(#SVGID_00000036240073540972172770000012642040053104063659_);}
	.st70{opacity:0.5;fill:url(#SVGID_00000005982158706218217590000010806247989282736545_);}
	.st71{fill:url(#SVGID_00000015321655469917342160000007105499936149948054_);}
	.st72{fill:url(#SVGID_00000165918448071729098100000003226186389028147082_);}
	.st73{fill:url(#SVGID_00000086654951341564696570000007772036567402765241_);}
	.st74{opacity:0.5;fill:url(#SVGID_00000022540421728050815850000000134068784046785680_);}
	.st75{opacity:0.3;fill:url(#SVGID_00000164509324408226978350000003608071235042211993_);}
	.st76{opacity:0.3;fill:url(#SVGID_00000070106010522251147720000003436885387793768064_);}
	.st77{opacity:0.3;fill:url(#SVGID_00000160906651090186015290000004229047120949951134_);}
	.st78{opacity:0.3;fill:url(#SVGID_00000133492718754904238300000000572067618293396634_);}
	.st79{fill:url(#SVGID_00000015313270088041108220000014463027129783194770_);}
	.st80{fill:url(#SVGID_00000137826414417262925030000005693626999719619984_);}
	.st81{fill:url(#SVGID_00000175312301812911847660000014946790450536404151_);}
	.st82{fill:url(#SVGID_00000052822593791704758330000003286279893238854055_);}
	.st83{opacity:0.5;fill:url(#SVGID_00000137835538886960310970000005075064890509013906_);}
	.st84{opacity:0.5;fill:url(#SVGID_00000139256878467707296050000003333356082179108537_);}
	.st85{fill:url(#SVGID_00000011012595399309369410000010319741096319571379_);}
	.st86{opacity:0.3;fill:url(#SVGID_00000023990181600170026580000008740326790093098371_);}
	.st87{opacity:0.3;fill:url(#SVGID_00000121260330692673941330000013844897140855052689_);}
	.st88{opacity:0.3;fill:url(#SVGID_00000086659086238827012120000010251376114290286246_);}
	.st89{fill:#212474;}
	.st90{fill:url(#SVGID_00000130621466117217938400000012568606465610686082_);}
	.st91{fill:url(#SVGID_00000005250266592876838590000005159794025029511070_);}
	.st92{fill:url(#SVGID_00000110435296267126344610000008445704025606329272_);}
	.st93{fill:url(#SVGID_00000024699854803498634140000016563981273326087818_);}
	.st94{fill:url(#SVGID_00000002359270060224549100000011052154448995093401_);}
	.st95{fill:url(#SVGID_00000031929525158506777070000017228746388156125099_);}
	.st96{fill:url(#SVGID_00000119835001382655726260000014939470739126906005_);}
	.st97{fill:url(#SVGID_00000172404173201420146330000011090480387680963740_);}
	.st98{opacity:0.3;fill:url(#SVGID_00000170995325052925147310000012448030078435901350_);}
	.st99{fill:url(#SVGID_00000052797803599646535000000010792087269892902032_);}
	.st100{fill:url(#SVGID_00000083083695292250589840000006540196726686360992_);}
	.st101{opacity:0.5;fill:url(#SVGID_00000046297251309938188040000011687802177012507035_);}
	.st102{opacity:0.3;fill:url(#SVGID_00000149370130729611563880000013924191255442260125_);}
	.st103{opacity:0.3;fill:url(#SVGID_00000091718570384690089410000003251223519191326888_);}
	.st104{opacity:0.3;fill:url(#SVGID_00000041978572900622669250000015662511788226003102_);}
	.st105{opacity:0.3;fill:url(#SVGID_00000060027587891939003570000014330077709938915501_);}
	.st106{fill:url(#SVGID_00000025405045489279404820000005280510211018127529_);}
	.st107{fill:url(#SVGID_00000147908647080904269820000014015110613675258301_);}
	.st108{fill:url(#SVGID_00000056422507448536282610000014088985045423205255_);}
	.st109{fill:url(#SVGID_00000091001485808551791180000006769390390553000590_);}
	.st110{opacity:0.5;fill:url(#SVGID_00000176762113884974747180000003220441703761296550_);}
	.st111{opacity:0.5;fill:url(#SVGID_00000159471152589847001290000017662268038439236999_);}
	.st112{fill:url(#SVGID_00000063623911374973205350000012125072920274503354_);}
	.st113{opacity:0.3;fill:url(#SVGID_00000091015259707333992780000012726581354770415546_);}
	.st114{opacity:0.3;fill:url(#SVGID_00000067930559613499887020000013251936760299310471_);}
	.st115{opacity:0.3;fill:url(#SVGID_00000121969308935571768940000017288816036344301476_);}
</style>
<g transform="translate(-88.4 -164.42)">
	<path class="st14" d="m122.4 472.1h-34v-196.3h34z"/>
	<path class="st14" d="m250.2 396.6h-38v75.5h-34.1v-196.3h69c22.6 0 40.1 5.1 52.4 15.2 12.3 10.2 18.5 24.9 18.5 44.1 0 13.1-3.2 24.1-9.5 33s-15.2 15.7-26.5 20.4l44.1 81.7v1.8h-36.5zm-38-27.5h35c11.5 0 20.5-2.9 27-8.7s9.7-13.7 9.7-23.8c0-10.5-3-18.6-9-24.4s-14.9-8.7-26.8-8.9h-36v65.8z"/>
	<path class="st14" d="m398.3 399.3v72.8h-34.1v-196.3h75.1c21.9 0 39.3 5.7 52.2 17.1s19.3 26.5 19.3 45.3c0 19.3-6.3 34.2-18.9 44.9s-30.3 16.1-53 16.1h-40.6zm0-27.5h41c12.1 0 21.4-2.9 27.8-8.6s9.6-14 9.6-24.7c0-10.6-3.2-19.1-9.7-25.4s-15.4-9.6-26.7-9.8h-41.9v68.5z"/>
	<linearGradient id="a" x1="556.48" x2="590.45" y1="373.97" y2="373.97" gradientUnits="userSpaceOnUse">
		<stop stop-color="#0123B8" offset="0"/>
		<stop stop-color="#212474" offset="1"/>
	</linearGradient>
	<path class="st12" d="m590.5 472.1h-34v-196.3h34z" fill="url(#a)"/>
	
		<linearGradient id="h" x1="631.09" x2="810.11" y1="373.97" y2="373.97" gradientUnits="userSpaceOnUse">
		<stop stop-color="#0123B8" offset="0"/>
		<stop stop-color="#212474" offset="1"/>
	</linearGradient>
	<path d="m758.5 426.4h-76l-15.9 45.7h-35.5l74.1-196.3h30.6l74.3 196.3h-35.6zm-66.5-27.5h56.9l-28.4-81.4z" fill="url(#h)"/>
	
		
			<radialGradient id="j" cx="467.66" cy="-316.71" r="114.38" gradientTransform="matrix(1.2826 0 0 .4117 344.62 760.75)" gradientUnits="userSpaceOnUse">
			<stop stop-color="#77A9F2" offset=".1321"/>
			<stop stop-color="#CEE0FA" offset=".5855"/>
			<stop stop-color="#fff" offset=".8324"/>
		</radialGradient>
		
			<ellipse cx="944.4" cy="630.4" rx="146.7" ry="47.1" fill="url(#j)" opacity=".5"/>
		
			
				<path class="st63" d="m944.4 506c0 1.8-0.5 35.3-7.2 48.8-1.7 3.5-3.9 5.7-6.6 5.6-9.5-0.4-31.1-40.5-39.6-63.2-1.9-5.2-3.2-9.5-3.5-12.2-0.2-2 0.1-3.1 1.1-3.1 2 0 4 0 5.9 0.3 0.3 0 0.5 0.1 0.8 0.1 23.6 2.8 46.5 21.7 48.9 23.7h0.2z"/>
				<path class="st19" d="m944.4 506c-31.5 2.7-52.4-13.9-56.9-21.1-1.2-1.8-1.2-3-0.1-3.1 2.3-0.2 4.6-0.1 7.1 0.3 0.3 0 0.5 0.1 0.8 0.1 20.8 3.2 46.3 21.8 48.9 23.7 0.1 0.1 0.2 0.1 0.2 0.1z"/>
				<path class="st63" d="m1001.3 485c-0.3 3-1.8 8.1-4.2 14.2-9 23-29.6 60.9-38.9 61.3-2.3 0.1-4.1-1.4-5.7-4-7.7-12.5-8.1-50.4-8.1-50.4s0.1 0 0.2-0.2c2.4-2 25.3-20.9 49-23.7 0.2 0 0.4 0 0.7-0.1 2-0.2 4-0.3 6-0.3 0.9 0.1 1.2 1.2 1 3.2z"/>
				<path class="st19" d="m1001.3 485c-4.4 7.1-25.4 23.8-56.9 21.1 0 0 0.1 0 0.2-0.2 2.6-1.9 28.1-20.6 49-23.7 0.2 0 0.4 0 0.7-0.1 2.4-0.3 4.8-0.4 7.1-0.3 1.1 0.2 1 1.4-0.1 3.2z"/>
				<path class="st64" d="m944.4 506c0 1.8-0.5 35.3-7.2 48.8 0 0-1.9-35.4-11.3-43.4s-34.9-14.3-34.9-14.3c-1.9-5.2-3.2-9.5-3.5-12.2-1.2-1.8-1.2-3-0.1-3.1 2.3-0.2 4.6-0.1 7.1 0.3 0.3 0 0.5 0.1 0.8 0.1 23.6 2.8 46.5 21.7 48.9 23.7 0.1 0.1 0.2 0.1 0.2 0.1z"/>
				<path class="st64" d="m1001.3 485c-0.3 3-1.8 8.1-4.2 14.2-4.4 0.9-28 6.4-36.3 20.8-7 12-8.1 28.9-8.3 36.5-7.7-12.5-8.1-50.4-8.1-50.4s0.1 0 0.2-0.2c2.4-2 25.3-20.9 49-23.7 0.2 0 0.4 0 0.7-0.1 2.4-0.3 4.8-0.4 7.1-0.3 1.1 0.2 1 1.4-0.1 3.2z"/>
				<path class="st63" d="m899.8 383c-0.7 6.8-2 14.4-4.2 21.9 0 0-2.1 3.1-6.2 7.8-10.3 11.7-33.4 33.7-68.9 44.8-0.9 0.3-1.7 0.5-2.6 0.8-5.7 1.7-16.3-15.5-10.8-30.2 0.5-1.4 1.2-2.8 2-4.1 2.3-3.6 6.7-8.6 12.7-14.2 15.5-14.7 41.1-33.9 63.7-45.3 5.2-2.6 10.2-4.8 14.9-6.5-0.1 0.1 0.9 10.9-0.6 25z"/>
				<path class="st19" d="m820.4 457.6c-0.6 0.7-1.3 1.4-2.1 2-8.5 6.4-21.1 2.7-14.1-23.8 0 0 0.6-3.9 2.8-7.6 1.8-3.1 4.8-6 9.5-6.4 11.7-1.1 13 25.4 3.9 35.8z"/>
				<path class="st64" d="m899.8 383-10.5 29.7c-10.3 11.7-33.4 33.7-68.9 44.8-0.6 0.7-1.3 1.4-2.1 2-8.5 6.4-21.1 2.7-14.1-23.8 0 0 0.6-3.9 2.8-7.6 0.5-1.4 1.2-2.8 2-4.1 2.3-3.6 6.7-8.6 12.7-14.2-0.4 0.8-3.5 6.9 3 9.2 6.9 2.5 43.4-6.2 59.5-23.4 16-17.2 15.5-33.2 1.3-31.1 5.2-2.6 10.2-4.8 14.9-6.5-0.1 0.1 0.9 10.9-0.6 25z"/>
				<path class="st63" d="m814.2 432.4c-9-1.6-36.4 18.2-45.1 58.2 0 0 0.6 3.2 8.7 3.5s22-14.6 31.5-23.3c9.4-8.8 20-35.6 4.9-38.4z"/>
				<path class="st19" d="m777.8 494.1s14.2-21.2 17-26.4c0 0 5.4-26.3 13.9-31.5 8.3-5.1 11.3 0.6 13.1 7.1 1.7 6.6-12 46.1-44 50.8z"/>
				<path class="st19" d="m794.2 472s3.4 7.8 7.7 9c0 0-3.6-25.5 2.7-39 0 0-8.2 12.6-10.4 30z"/>
				<path class="st63" d="m808.2 437.8s8.8-6.1 13.6 5.5c0 0-1.6 19.1-12.3 38.4 0 0-5.5 1.6-7.6-0.7-4.7-5.1-3.3-36.5 6.3-43.2z"/>
				
					<path class="st63" d="m1002.4 463.9c-4.2 24.6-26.2 41-57.8 41-27.5 0-50.8-10.3-57-32.8-6.2-22.6-3.8-64.3 4.4-90.3 1.2-3.9 2.7-7.6 4.4-11.2 1.6-3.2 3.3-6.3 5.2-9.2 10-15.1 24.7-25 41.3-25 17.3 0 30.5 7.1 39.5 17.6 4.2 4.9 7.5 10.5 9.8 16.5 2.7 6.9 5 14.2 6.8 21.8v0.2c5.9 23.6 7.1 49.4 3.4 71.4z"/>
					<path class="st64" d="m1002.4 463.9c-4.2 24.6-26.2 41-57.8 41-27.5 0-50.8-10.3-57-32.8-6.2-22.6-3.8-64.3 4.4-90.3 1.2-3.9 2.7-7.6 4.4-11.2 0 0-16.6 55.2-3.3 90.3s75.3 34.4 96.3 11c20-22.2 10.7-74.4 9.8-79.4 5.7 23.6 6.9 49.4 3.2 71.4z"/>
					<path class="st19" d="m888.8 449.3c4.7-33 31.2-55.4 60.7-52.7 31.7 3 48.8 33.3 48.3 59.3s-19.5 46.3-53.5 46.3-59.9-22-55.5-52.9z"/>
					
						<radialGradient id="g" cx="946" cy="490.93" r="77.368" gradientUnits="userSpaceOnUse">
						<stop stop-color="#E9BED2" offset=".1161"/>
						<stop stop-color="#C683A4" offset="1"/>
					</radialGradient>
					<path d="m889.1 452c4.7-33 31.2-55.4 60.7-52.7 31.7 3 48.8 33.3 48.3 59.3s-19.5 46.3-53.5 46.3c-34.1 0-59.9-22-55.5-52.9z" fill="url(#g)"/>
					<path class="st19" d="m982.6 354c-6.7 10.6-43.8 16.7-65.2 14.8-18.6-1.7-15.8-6.7-15.7-7.4 10-15.1 24.7-25 41.3-25 17.4 0 30.6 7.1 39.6 17.6z"/>
				
				<path class="st19" d="m984.7 356.6s-2-2.6-4.5-3.8c0 0 7.1 35.9 21.4 50.6-0.1 0-6.3-33.9-16.9-46.8z"/>
				<path class="st19" d="m1000.3 187.5s13.7-11.8 30.5-13.9c0 0 5.1 2.5 11.1 21 5.9 18.5-5 55-5 55z"/>
				<path class="st19" d="m1030.8 173.6s-13.6 14.5-13.6 38l5.2 3.3 15.3-31.6c0.1-0.1-5-10-6.9-9.7z"/>
				
					<radialGradient id="b" cx="1073.1" cy="184.27" r="49.901" gradientUnits="userSpaceOnUse">
					<stop stop-color="#E9BED2" offset=".1161"/>
					<stop stop-color="#C683A4" offset="1"/>
				</radialGradient>
				<path d="m1022 213.3s-3.6-20 9.6-34.7c0 0 14.9 7 21 33 6.2 26-9.9 41.6-9.9 41.6z" fill="url(#b)"/>
				<path class="st19" d="m885.4 190.4s-13.7-11.8-30.5-13.9c0 0-5.1 2.5-11.1 21-5.9 18.5 5 55 5 55z"/>
				<path class="st19" d="m855 176.6s13.6 14.5 13.6 38l-5.2 3.3-15.4-31.7s5.1-9.9 7-9.6z"/>
				
					<radialGradient id="d" cx="824.44" cy="182.89" r="59.462" gradientUnits="userSpaceOnUse">
					<stop stop-color="#E9BED2" offset=".1161"/>
					<stop stop-color="#C683A4" offset="1"/>
				</radialGradient>
				<path d="m863.8 216.2s3.6-20-9.6-34.7c0 0-14.9 7-21 33-6.2 26 11.6 43.3 11.6 43.3z" fill="url(#d)"/>
				<path class="st63" d="m847 317c21 48.4 178 33.3 196.8-6.5 20.5-43.5-26.7-151-101.9-145.9-63.7 4.2-121.9 90.2-94.9 152.4z"/>
				
					<linearGradient id="i" x1="943.54" x2="943.54" y1="213.28" y2="322.4" gradientUnits="userSpaceOnUse">
					<stop stop-color="#212474" offset="0"/>
					<stop stop-color="#619AFC" offset=".883"/>
				</linearGradient>
				<path d="m855.6 310.2c20.1 39.7 157.1 33.1 177.2-3.4 17-31-23.2-125.4-92-122-68.9 3.4-104.4 87.3-85.2 125.4z" fill="url(#i)"/>
				
					<linearGradient id="e" x1="879.69" x2="1014.2" y1="218.82" y2="218.82" gradientUnits="userSpaceOnUse">
					<stop offset="0"/>
					<stop stop-color="#7A99FB" offset="1"/>
				</linearGradient>
				<path d="m879.8 224.6c-1.6 9.5 16.3 8.4 45 7.4 34.4-1.1 69 28.5 89.2 7.2 3.3-3.5-29.6-49.5-69.4-48.5-39.9 1.1-63.4 25.7-64.8 33.9z" fill="url(#e)" opacity=".5"/>
				
					<linearGradient id="f" x1="897.37" x2="995.15" y1="326.37" y2="326.37" gradientUnits="userSpaceOnUse">
					<stop offset="0"/>
					<stop stop-color="#7A99FB" offset="1"/>
				</linearGradient>
				<path d="m897.5 323.2c-1.8 6.9 12.5 13.7 47.8 12 42.6-2.1 51.7-11 49.6-13.5-1.3-1.5-14 6.6-49-1.1-23.2-5.1-46.5-4.6-48.4 2.6z" fill="url(#f)" opacity=".5"/>
				<path class="st19" d="m862.4 333.3s2.1-2.3 13.5-9c7.6-4.5 15.6-9.8 16.8-11.7 1.7-4.6-32.6-1.9-32.6-1.9l-13.1 6.3s5.1 10.2 15.4 16.3z"/>
				<path class="st14" d="m836.1 232.1s8.9 5.7 3 18.9c0 0-41.4 22.5-39 47.1 2 20.5 59.2 10.6 59.2 10.6l2.1 6.8s-48.6 9.5-65.3-1.9c0 0-5.7-13.5 8.4-37.9 14.2-24.5 31.6-43.6 31.6-43.6z"/>
				<path class="st14" d="m852.1 306.8c-5.2 5.9 5.8 12.3 14.9 13.3 10.2 1.1 28.3-2.9 27.2-13.2-1-10.3-29.8-14-42.1-0.1z"/>
				<path class="st19" d="m983.5 342.3s-22.5-22.7-29.7-45.4l56.3 37.1s-19.1 6.7-26.6 8.3z"/>
				<path class="st38" d="m881.1 253.2s18.2-2.7 36 2.7c2.6 0.8-5.5-8.8-18-10.5s-18.8 3.5-18 7.8z"/>
				<path class="st38" d="m924.7 291.8c3.1-9.4 14.9-9 17.4-0.6 2.6 9-7.8 19.3-12.5 17.7-4.8-1.6-7.2-10.2-4.9-17.1z"/>
				
					<linearGradient id="c" x1="1004.8" x2="1001.1" y1="219.65" y2="353.42" gradientUnits="userSpaceOnUse">
					<stop stop-color="#212474" offset="0"/>
					<stop stop-color="#619AFC" offset=".883"/>
				</linearGradient>
				<path d="m955.8 280.1c-11.1-30.8 18.1-70.4 63-75.4 0 0 42.6 27.4 32.7 103.1 0-0.1-66.9 52.2-95.7-27.7z" fill="url(#c)"/>
				<path class="st63" d="m1018.8 204.7s15.2 0.1 33 15 26.3 58.4-0.3 88.1c0-0.1 11.9-60.9-32.7-103.1z"/>
				<path class="st38" d="m981.7 270c1.3 14.1 43.2 12.7 49.9 0 5.4-10.2-10.3-43.6-27-41.2s-24.8 21.4-22.9 41.2z"/>
				<path class="st14" d="m1012.8 200.7c-35.8 0-64.8 29-64.8 64.8s29 64.8 64.8 64.8 64.8-29 64.8-64.8c-0.1-35.8-29.1-64.8-64.8-64.8zm0 118.7c-29.8 0-53.9-24.1-53.9-53.9s24.1-53.9 53.9-53.9 53.9 24.1 53.9 53.9-24.2 53.9-53.9 53.9z"/>
				<path class="st63" d="m1084.8 366s-14 26.5-31.9 35.3c-17.8 8.8-45-1.8-53.7-8.8-12-9.5-16.4-42.4-11.3-42.4 4.6 0 9.1 3.5 23.6 5.3 3.9 0.5 8.6 0.9 14.1 1 13.2 0.4 25.5-2.8 33.4-5.5 5.8-2 9.3-3.7 9.3-3.7 10.7 0 16.5 18.8 16.5 18.8z"/>
				<path class="st19" d="m1066.7 348.4s-1.3 19.5 6.2 22.2 12-4.6 12-4.6l3.7-7.9z"/>
				<path class="st14" d="m1041.4 322.8s28.9 31.3 47.2 43.2c0 0 11.3-1.4 13.6-12.6l-41.1-48.3z"/>
				<path class="st63" d="m1058.9 341c-0.4 1.6-11.3 4.6-14.2-1.2-0.3-0.6-0.5-1.2-0.7-1.7-1.7-5 0.7-8.9 3-10.1l0.2 0.2c1.4 1.5 12 11.4 11.7 12.8z"/>
				<path class="st63" d="m1091.4 340.9-5.3-6.1s-17.9-8.9-21.5-24.8c0 0 4.2-8.5 13-8.8 3.5-0.1 6.7 4.5 9.1 10.8 3.6 9.5 5.7 22.7 4.7 28.9z"/>
				<path class="st64" d="m1084.8 366s-14 26.5-31.9 35.3c-17.8 8.8-45-1.8-53.7-8.8-12-9.5-16.4-42.4-11.3-42.4 4.6 0 9.1 3.5 23.6 5.3-0.9-0.1-13.3-0.9-15.5 2.6-2.3 3.6 22.7 40.1 47.6 30 24.9-10.2 19.8-36.9 15.6-37 5.8-2 9.3-3.7 9.3-3.7 10.5-0.1 16.3 18.7 16.3 18.7z"/>
				<path class="st64" d="m1058.9 341c-0.4 1.6-11.3 4.6-14.2-1.2-0.3-0.6-0.5-1.2-0.7-1.7 2.4 3 6.1 2.5 7.2-0.8 1.1-3.2-3.1-8-4.1-9 1.5 1.4 12.1 11.3 11.8 12.7z"/>
				<path class="st64" d="m1091.4 340.9-5.3-6.1s-17.9-8.9-21.5-24.8c0.4 0.9 9 14.2 18.2 15.5 6.8 0.9 4.1-12.6 3.9-13.5 3.6 9.5 5.7 22.7 4.7 28.9z"/>
			
		
	
</g>
</svg>
