<?xml version="1.0" encoding="UTF-8"?>
<svg width="9.1485mm" height="3.3438mm" version="1.1" viewBox="0 0 9.1485 3.3438" xmlns="http://www.w3.org/2000/svg">
<g transform="translate(-22.325 -8.5794)" stroke-width=".26458">
<rect x="18.021" y="4.2747" width="37.167" height="38.435" fill="#fff" data-name="Rectangle 90"/>
<path d="m26.131 11.539 0.11536-0.11536c0.07699-0.07699 0.11536-0.15372 0.19209-0.23072 0.03837-0.03837 0.03837-0.03837 0.07699-0.03837v-0.03837c-0.03836 0-0.03836 0.03837-0.07699 0.03837 0.03837 0 0.03837-0.03837 0.07699-0.03837a0.29369 0.29369 0 0 0-0.19209 0.07699h-0.03863a1.6711 1.6711 0 0 1-0.26908 0.15372c-0.03836 0-0.07699 0.03837-0.11536 0.03837h-0.15372c-0.07699 0-0.15372 0.03836-0.23072 0.03836-0.03837 0-0.07699 0.03837-0.11536 0.03837l-0.03837 0.03836c-0.03836 0.03837-0.07699 0.03837-0.11536 0.07699l-0.11536 0.11536h-0.03836v-0.07699a0.037571 0.037571 0 0 1 0.03836-0.03837c0.03836-0.03836 0.07699-0.03836 0.11536-0.07699a0.037571 0.037571 0 0 0-0.03837 0.03837l-0.03836 0.03836 0.03836-0.03836c0.03837 0 0.03837-0.03837 0.07699-0.03837-0.03837 0-0.07699 0.03837-0.11536 0.03837a0.037571 0.037571 0 0 0 0.03836-0.03837c0.19209-0.15372 0.46117-0.11536 0.69189-0.19209l0.03836-0.03836c0.03836 0 0.03836-0.03836 0.07699-0.07699a0.53049 0.53049 0 0 0 0.11536-0.15372 1.1681 1.1681 0 0 1-0.26908 0.19209 1.071 1.071 0 0 0-0.38444-0.03836h0.03837a0.037571 0.037571 0 0 1 0.03836-0.03837h0.03836c0-0.03837-0.03836 0-0.07699 0v-0.03837h0.03837v-0.03836c0.07699-0.03836 0.19209-0.11536 0.26908-0.15372h-0.03836c0.07699 0 0.11536-0.03837 0.19209-0.07699 0-0.03836 0.03836-0.03836 0.07699-0.03836h-0.03836v-0.03863a0.23098 0.23098 0 0 0 0.03836-0.15372c-0.07699 0.07699-0.15372 0.07699-0.26908 0.11536h-0.15346c-0.03836 0-0.03836-0.03837-0.07699-0.03837-0.03836-0.03836-0.11536-0.03836-0.15372-0.07699a0.44979 0.44979 0 0 0-0.42333-0.19209c0.07699-0.03837 0.15372-0.03837 0.23072-0.07699a0.90461 0.90461 0 0 1 0.30745-0.07699h-0.07699a0.65405 0.65405 0 0 0-0.26908 0.03836c-0.07699 0-0.11536 0.03836-0.19209 0.03836-0.03836 0-0.03836 0.03836-0.11536 0.03836 0.07699-0.07699 0.15372-0.15372 0.23072-0.15372h0.34581c0.07699 0 0.15372 0.03837 0.23072 0.03837 0.03836 0 0.03836 0.03836 0.07699 0.03836a0.14129 0.14129 0 0 1 0.11536 0.03836v-0.03836c0.03836-0.03836 0.03836 0 0.07699 0 0.03836-0.03836-0.03836-0.07699-0.07699-0.11536a0.53049 0.53049 0 0 0 0.15372 0.11536c0.03836 0 0.11536 0.03836 0.07699 0a0.67469 0.67469 0 0 0-0.15372-0.19209v-0.07646c-0.03836 0 0-0.03836-0.03836-0.03836v-0.11536a0.14129 0.14129 0 0 0-0.03836-0.11536c0-0.11536-0.03836-0.19209-0.03836-0.30745a0.73395 0.73395 0 0 1 0.11537-0.30745 0.31565 0.31565 0 0 1 0.19209-0.19209 0.32676 0.32676 0 0 1 0.11536-0.19209 0.21167 0.21167 0 0 1 0.19209-0.11536l0.15372-0.076994h1.3068a0.13414 0.13414 0 0 1 0.07699 0.038365c0.03837 0.038365 0.07699 0.038365 0.11536 0.11536a0.052917 0.052917 0 0 1 0 0.076994c0 0.038365 0 0.076994-0.03836 0.076994h-0.19209c0.07699 0.038365 0.19209 0.076994 0.23072 0.15372h0.03837s-0.03837 0 0 0.038365c0.03836 0 0.03836-0.076994 0.07699-0.038365 0.03837 0 0.03837 0.076994 0.03837 0.076994l-0.07699 0.076994v0.038365c0 0.038365 0.03837 0.038365 0.03837 0.076994s0.03836 0.076994 0.03836 0.15372a0.65405 0.65405 0 0 1 0.03837 0.26908c0 0.038365-0.03837 0.076994 0 0.15372 0 0.038365 0.03836 0.076994 0.07699 0.11536 0.03863 0.03837 0.03836 0.07699 0.07699 0.11536 0.03837 0.07699 0.11536 0.11536 0.07699 0.19209 0 0.03836-0.07699 0.03836-0.11536 0.07699-0.03837 0.03863 0 0.07699 0 0.11536 0.03836 0.03837-0.03837 0.07699-0.07699 0.11536a0.037571 0.037571 0 0 1 0.03836 0.03837c0 0.03836 0.03836 0.03836 0 0.07699s-0.11536 0.03836-0.07699 0.11536c0.03836 0.03836 0 0.07699 0 0.15372 0 0.03836-0.07699 0.07699-0.11536 0.07699h-0.15372c-0.11536 0-0.23072-0.03837-0.30745-0.03837-0.03836 0-0.07699 0-0.07699 0.03837a0.14129 0.14129 0 0 1-0.03836 0.11536c0 0.03837-0.03836 0.03837-0.03836 0.07699a0.14129 0.14129 0 0 0-0.03836 0.11536c-0.03836 0.15372-0.03836 0.26908 0 0.30745a3.2639 3.2639 0 0 0 0.34581 0.11536c0.07699 0.03837 0.11536 0.03837 0.15372 0.07699h-2.5749a2.2376 2.2376 0 0 1 0.42333-0.19209c0-0.03836 0.19209-0.11536 0.26908-0.15372m-0.99936-0.46116c-0.03836-0.03837 0-0.03837 0.03837-0.03837h0.03836a0.037571 0.037571 0 0 1 0.03837 0.03837s-0.03837-0.03837-0.11536 0m-0.96123-0.15531a1.5579 1.5579 0 0 0 0.19209-0.34581 1.0192 1.0192 0 0 0 0.23072-0.19209 1.0583 1.0583 0 0 1 0.34581-0.26908h0.15372c0 0.03837-0.03836 0-0.07699 0.03837-0.07699 0.07699-0.15372 0.11536-0.19209 0.19209-0.03836 0.07673-0.07699 0.15372-0.15372 0.15372a2.6458 2.6458 0 0 0-0.49953 0.4228m0.53816-0.42333-0.03836 0.03837a0.037571 0.037571 0 0 1 0.03836-0.03837m0.3085 0.96282c-0.03836 0 0 0.03836 0 0-0.03836 0.03836-0.03836 0.03836-0.03836 0.07699l-0.03836 0.03836h-0.03969l0.03836-0.03836 0.03836-0.03837c-0.03836-0.03837 0-0.03837 0.03836-0.03837m-0.11536-0.03836c-0.03836 0-0.03836 0.03836-0.07699 0.03836s-0.03836 0.03837-0.07699 0.03837c-0.03836 0-0.03836 0.03837-0.07699 0.03837h-0.03836l-0.03836 0.03836 0.03836-0.03836 0.03836-0.03837a0.037571 0.037571 0 0 1 0.03836-0.03837l-0.03836 0.03837 0.03836-0.03837h0.03836c0.07699-0.07699 0.15372-0.03836 0.23072-0.07699h0.15372c-0.15372-0.03836-0.19209 0-0.23072 0.03836m0.11536-0.46117h-0.11456c-0.03836 0-0.07699 0.03837-0.11536 0.03837-0.07699 0.03837-0.11536 0.07699-0.19209 0.11536l0.03836-0.03836a0.38365 0.38365 0 0 1 0.19209-0.15372c0-0.03836 0.03836-0.03836 0.07699-0.07699a0.13414 0.13414 0 0 1 0.07699-0.03836h-0.07699a0.037571 0.037571 0 0 0 0.03836-0.03836 0.037571 0.037571 0 0 1 0.03836-0.03837c0.03836 0 0.03836 0 0.07699-0.03836h-0.15372a0.38365 0.38365 0 0 1 0.15372-0.19209c0 0.03837 0 0.03837-0.03836 0.07699a0.23098 0.23098 0 0 1 0.15372 0.03836h-0.03837a0.14129 0.14129 0 0 1 0.11536 0.03836h-0.03836a1.8121 1.8121 0 0 1 0.57653 0.23072 0.87604 0.87604 0 0 1-0.42333 0.11536h-0.11536c-0.19209 0-0.23072 0-0.23072-0.03836" fill="#fff"/>
<path d="m26.131 11.539 0.11536-0.11536c0.07699-0.07699 0.11536-0.15372 0.19209-0.23072 0.03836-0.03837 0.03836-0.03837 0.07699-0.03837v-0.03837c-0.03836 0-0.03836 0.03837-0.07699 0.03837 0.03836 0 0.03836-0.03837 0.07699-0.03837a0.29369 0.29369 0 0 0-0.19209 0.07699h-0.03836a1.6711 1.6711 0 0 1-0.26908 0.15372c-0.03837 0-0.07699 0.03837-0.11536 0.03837h-0.15372c-0.07699 0-0.15372 0.03836-0.23072 0.03836-0.03836 0-0.07699 0.03837-0.11536 0.03837l-0.03836 0.03836c-0.03836 0.03837-0.07699 0.03837-0.11536 0.07699l-0.11536 0.11536h-0.03836v-0.07699a0.037571 0.037571 0 0 1 0.03836-0.03837c0.03836-0.03836 0.07699-0.03836 0.11536-0.07699a0.037571 0.037571 0 0 0-0.03836 0.03837l-0.03836 0.03836 0.03836-0.03836c0.03836 0 0.03836-0.03837 0.07699-0.03837-0.03836 0-0.07699 0.03837-0.11536 0.03837a0.037571 0.037571 0 0 0 0.03836-0.03837c0.19209-0.15372 0.46117-0.11536 0.69189-0.19209l0.03836-0.03836c0.03837 0 0.03837-0.03836 0.07699-0.07699a0.53049 0.53049 0 0 0 0.11536-0.15372 1.1681 1.1681 0 0 1-0.26908 0.19209 1.071 1.071 0 0 0-0.38444-0.03836h0.03836a0.037571 0.037571 0 0 1 0.03837-0.03837h0.03836c0-0.03837-0.03836 0-0.07699 0v-0.03837h0.03783v-0.03836c0.07699-0.03836 0.19209-0.11536 0.26908-0.15372h-0.03836c0.07699 0 0.11536-0.03837 0.19209-0.07699 0-0.03836 0.03837-0.03836 0.07699-0.03836h-0.03837v-0.03863a0.23098 0.23098 0 0 0 0.03837-0.15372c-0.07699 0.07699-0.15372 0.07699-0.26908 0.11536h-0.15372c-0.03837 0-0.03837-0.03837-0.07699-0.03837-0.03836-0.03836-0.11536-0.03836-0.15372-0.07699a0.44979 0.44979 0 0 0-0.42333-0.19209c0.07699-0.03837 0.15372-0.03837 0.23072-0.07699a0.90461 0.90461 0 0 1 0.30745-0.07699h-0.07699a0.65405 0.65405 0 0 0-0.26908 0.03836c-0.07699 0-0.11536 0.03836-0.19209 0.03836-0.03836 0-0.03836 0.03836-0.11536 0.03836 0.07699-0.07699 0.15372-0.15372 0.23072-0.15372h0.34581c0.07699 0 0.15372 0.03837 0.23072 0.03837 0.03837 0 0.03837 0.03836 0.07699 0.03836a0.14129 0.14129 0 0 1 0.11536 0.03836v-0.03836c0.03837-0.03836 0.03837 0 0.07699 0 0.03836-0.03836-0.03837-0.07699-0.07699-0.11536a0.53049 0.53049 0 0 0 0.15372 0.11536c0.03837 0 0.11536 0.03836 0.07699 0a0.67469 0.67469 0 0 0-0.15372-0.19209v-0.07646c-0.03837 0 0-0.03836-0.03837-0.03836v-0.11536a0.14129 0.14129 0 0 0-0.03836-0.11536c0-0.11536-0.03837-0.19209-0.03837-0.30745a0.73395 0.73395 0 0 1 0.11537-0.30745 0.31565 0.31565 0 0 1 0.19209-0.19209 0.32676 0.32676 0 0 1 0.11536-0.19209 0.21167 0.21167 0 0 1 0.19209-0.11536l0.15372-0.076994h-4.2656v3.3438h3.0364a2.2373 2.2373 0 0 1 0.42333-0.19209 1.5579 1.5579 0 0 1 0.34581-0.19209m-1.0009-0.46143c-0.03836-0.03836 0-0.03836 0.03836-0.03836h0.04101a0.037571 0.037571 0 0 1 0.03836 0.03836s-0.03836-0.03836-0.11536 0m-0.96097-0.15372a1.5579 1.5579 0 0 0 0.19209-0.34581 1.0192 1.0192 0 0 0 0.23072-0.19209 1.0583 1.0583 0 0 1 0.34581-0.26908h0.15372c0 0.03837-0.03836 0-0.07699 0.03837-0.07699 0.07699-0.15372 0.11536-0.19209 0.19209-0.03836 0.07673-0.07699 0.15372-0.15372 0.15372a2.6458 2.6458 0 0 0-0.49953 0.42333m0.53816-0.42333-0.03836 0.03836a0.037571 0.037571 0 0 1 0.03836-0.03836m0.30639 0.96229c-0.03836 0 0 0.03836 0 0-0.03836 0.03836-0.03836 0.03836-0.03836 0.07699l-0.03836 0.03836h-0.03836l0.03836-0.03836 0.03836-0.03837c-0.03836-0.03837 0-0.03837 0.03836-0.03837m-0.11536-0.03836c-0.03836 0-0.03836 0.03836-0.07699 0.03836s-0.03836 0.03837-0.07699 0.03837c-0.03836 0-0.03836 0.03837-0.07699 0.03837h-0.03836l-0.03837 0.03836 0.03837-0.03836 0.03836-0.03837a0.037571 0.037571 0 0 1 0.03836-0.03837l-0.03836 0.03837 0.03836-0.03837h0.03837c0.07699-0.07699 0.15372-0.03836 0.23072-0.07699h0.15293c-0.15372-0.03836-0.19209 0-0.23072 0.03836m0.11536-0.46117h-0.11536c-0.03837 0-0.07699 0.03837-0.11536 0.03837-0.07699 0.03837-0.11536 0.07699-0.19209 0.11536l0.03837-0.03836a0.38365 0.38365 0 0 1 0.19209-0.15372c0-0.03836 0.03837-0.03836 0.07699-0.07699a0.13414 0.13414 0 0 1 0.07699-0.03836h-0.07699a0.037571 0.037571 0 0 0 0.03836-0.03836 0.037571 0.037571 0 0 1 0.03836-0.03837c0.03836 0 0.03836 0 0.07699-0.03836h-0.15372a0.38365 0.38365 0 0 1 0.15372-0.19209c0 0.03837 0 0.03837-0.03836 0.07699a0.23098 0.23098 0 0 1 0.15372 0.03836h-0.03836a0.14129 0.14129 0 0 1 0.11536 0.03836h-0.03598a1.8121 1.8121 0 0 1 0.57653 0.23072 0.87604 0.87604 0 0 1-0.42333 0.11536h-0.11615c-0.19209 0-0.23072 0-0.23072-0.03836" fill="#000091"/>
<path d="m31.474 8.5794h-3.537a0.13414 0.13414 0 0 1 0.07699 0.038365c0.03837 0.038365 0.07699 0.038365 0.11536 0.11536a0.052917 0.052917 0 0 1 0 0.076994c0 0.038365 0 0.076994-0.03836 0.076994h-0.19209c0.07699 0.038365 0.19209 0.076994 0.23072 0.15372h0.03704s-0.03836 0 0 0.038365c0.03836 0 0.03836-0.076994 0.07699-0.038365 0.03836 0 0.03836 0.076994 0.03836 0.076994l-0.07699 0.076994v0.038365c0 0.038365 0.03836 0.038365 0.03836 0.076994s0.03836 0.076994 0.03836 0.15372a0.65405 0.65405 0 0 1 0.03836 0.26908c0 0.038365-0.03836 0.076994 0 0.15372 0 0.038365 0.03836 0.076994 0.07699 0.11536 0.03863 0.03837 0.03836 0.07699 0.07699 0.11536 0.03836 0.07699 0.11536 0.11536 0.07699 0.19209 0 0.03836-0.07699 0.03836-0.11536 0.07699-0.03837 0.03863 0 0.07699 0 0.11536 0.03836 0.03837-0.03837 0.07699-0.07699 0.11536a0.037571 0.037571 0 0 1 0.03837 0.03837c0 0.03836 0.03836 0.03836 0 0.07699-0.03837 0.03863-0.11536 0.03836-0.07699 0.11536 0.03836 0.03836 0 0.07699 0 0.15372 0 0.03836-0.07699 0.07699-0.11536 0.07699h-0.1537c-0.11536 0-0.23072-0.03837-0.30745-0.03837-0.03836 0-0.07699 0-0.07699 0.03837-0.03837 0.03836-0.03837 0.07699-0.07699 0.11536 0 0.03837-0.03836 0.03837-0.03836 0.07699a0.14129 0.14129 0 0 0-0.03836 0.11536c-0.03836 0.15372-0.03836 0.26908 0 0.30745a3.2639 3.2639 0 0 0 0.34581 0.11536c0.07699 0.03837 0.11536 0.03837 0.15372 0.07699h3.4615z" fill="#e1000f"/>
<path d="m28.129 9.8095h0.07699c0 0.038365-0.07699 0.076994-0.11536 0.11536a0.037571 0.037571 0 0 1-0.03836 0.038365h-0.03836c0.03836 0.038365 0.03836 0.038365 0.07699 0.038365v0.07672c0 0.03837-0.03836 0-0.07699 0h0.15372c0.03836 0 0-0.07699 0.03836-0.11536l0.03836-0.038365h0.03836s-0.03836 0 0-0.038365 0.07699-0.076994 0.03836-0.11536a0.11906 0.11906 0 0 1-0.07699-0.038365h-0.11536c-0.03837 0-0.07699 0-0.07699 0.038365-0.03837 0-0.07699 0.038365-0.11536 0.076994 0.03836 0 0.07699-0.038365 0.15372-0.038365h0.03836" fill="#9c9b9b"/>
</g>
</svg>
