<?xml version="1.0" encoding="UTF-8"?>
<svg version="1.1" viewBox="0 0 333.1 513.08" xml:space="preserve" xmlns="http://www.w3.org/2000/svg">
<style type="text/css">
	.st0{fill:none;}
	.st1{fill:none;stroke:#FFFFFF;stroke-width:0;stroke-linecap:round;stroke-linejoin:round;}
	.st2{fill:none;stroke:#000000;stroke-width:6;stroke-linecap:round;stroke-linejoin:round;}
	.st3{stroke:#000000;stroke-width:2;stroke-linejoin:round;}
	.st4{fill:none;stroke:#000000;stroke-width:4;stroke-linecap:round;stroke-linejoin:round;}
	.st5{stroke:#000000;stroke-width:6;stroke-linecap:round;stroke-linejoin:round;}
	.st6{fill:#FFFFFF;}
	.st7{fill:none;stroke:#000000;stroke-width:7;stroke-linecap:round;stroke-linejoin:round;}
	.st8{fill:none;stroke:#000000;stroke-width:5.9353;stroke-linecap:round;stroke-linejoin:round;}
	.st9{fill:none;stroke:#000000;stroke-width:3.1415;stroke-linecap:round;stroke-linejoin:round;}
	.st10{fill:#FFFFFF;stroke:#000000;stroke-width:3.1415;stroke-linecap:round;stroke-linejoin:round;}
	.st11{fill:#C683A4;}
	.st12{fill:url(#a);}
	.st13{fill:url(#SVGID_00000127752265551964058780000013978951586338094741_);}
	.st14{fill:#B52168;}
	.st15{fill:#E9BED2;}
	.st16{fill:#EAEAEA;}
	.st17{fill:url(#SVGID_00000077313071360484040680000010814758649184007071_);}
	.st18{fill:url(#SVGID_00000172424149872168151490000015382111771089036940_);}
	.st19{fill:#619AFC;}
	.st20{fill:url(#SVGID_00000157988711815853906220000005879717411538551218_);}
	.st21{fill:url(#SVGID_00000044870806874789331600000007372348029082581384_);}
	.st22{fill:#E8F5FF;}
	.st23{opacity:0.3;fill:url(#SVGID_00000122684962926663154310000017835911709363609994_);}
	.st24{fill:url(#SVGID_00000029021479016602295440000015928742498834259903_);}
	.st25{fill:url(#SVGID_00000052803459401196952460000015883606323446155673_);}
	.st26{opacity:0.3;fill:url(#SVGID_00000119814232630077745030000008681372845781161365_);}
	.st27{opacity:0.5;fill:url(#SVGID_00000011729677430330845190000006524000686723324336_);}
	.st28{opacity:0.3;fill:url(#SVGID_00000000931319081737390030000007297844811556117136_);}
	.st29{opacity:0.3;fill:url(#SVGID_00000181052855856157713530000010263616507565781134_);}
	.st30{opacity:0.3;fill:url(#SVGID_00000137092446340816361410000003594407603348334998_);}
	.st31{opacity:0.3;fill:url(#SVGID_00000163041210728305905950000017209309522126673331_);}
	.st32{fill:url(#SVGID_00000018206666925233125470000000758377361492136071_);}
	.st33{fill:url(#SVGID_00000127011552002143510860000002673744339880754075_);}
	.st34{fill:url(#SVGID_00000034772026287317343740000004956763737187037363_);}
	.st35{fill:url(#SVGID_00000101092035569770727980000018023312095726432905_);}
	.st36{opacity:0.5;fill:url(#SVGID_00000140010278797395026620000010384385455170736028_);}
	.st37{opacity:0.5;fill:url(#SVGID_00000036225686824569771230000017920855277093009325_);}
	.st38{fill:#9FC7FC;}
	.st39{fill:url(#SVGID_00000083056026567681615990000002576343605297953711_);}
	.st40{opacity:0.3;fill:url(#SVGID_00000154413096648291102420000004084144966249055929_);}
	.st41{opacity:0.3;fill:url(#SVGID_00000066476183441272058460000007445000757572588721_);}
	.st42{opacity:0.3;fill:url(#SVGID_00000139988433556292496620000001127548965542485168_);}
	.st43{fill:url(#SVGID_00000103945214611796596760000018142462649668012476_);}
	.st44{fill:url(#SVGID_00000045579738453724219200000013414561480498619800_);}
	.st45{opacity:0.5;fill:url(#SVGID_00000129924380899752259430000010942322782026960524_);}
	.st46{opacity:0.3;fill:url(#SVGID_00000156586902447044363840000004197455128423927699_);}
	.st47{opacity:0.3;fill:url(#SVGID_00000178923582727326650390000003913020494070636218_);}
	.st48{opacity:0.3;fill:url(#SVGID_00000000901162264005578070000010956016802977671328_);}
	.st49{opacity:0.3;fill:url(#SVGID_00000121252088503499511520000008169780497561478298_);}
	.st50{fill:url(#SVGID_00000098199129569204018080000004914649582369554828_);}
	.st51{fill:url(#SVGID_00000181051036857698906820000015958434107328667540_);}
	.st52{fill:url(#SVGID_00000142134886471933957800000010237765103446260652_);}
	.st53{fill:url(#SVGID_00000016778540277126502670000017107249507532533638_);}
	.st54{opacity:0.5;fill:url(#SVGID_00000113340971715917067280000015163848178695817874_);}
	.st55{opacity:0.5;fill:url(#SVGID_00000134229685773560330990000005089042438247292075_);}
	.st56{fill:url(#SVGID_00000139981989621702012390000004427671030216115367_);}
	.st57{opacity:0.3;fill:url(#SVGID_00000106836348665026200380000002426437898667123337_);}
	.st58{opacity:0.3;fill:url(#SVGID_00000170244819557327368400000016820410692092390529_);}
	.st59{opacity:0.3;fill:url(#SVGID_00000087395735941414094240000002043599508129460397_);}
	.st60{opacity:0.5;fill:url(#SVGID_00000122711508271473844430000011150798302732427441_);}
	.st61{fill:#BDD1FC;}
	.st62{fill:#98B9FC;}
	.st63{fill:url(#SVGID_00000148628293681763631100000000204459395692308411_);}
	.st64{fill:url(#SVGID_00000094600691985852870840000010428187686461970077_);}
	.st65{fill:url(#SVGID_00000170259823542992834260000011216943098767960738_);}
	.st66{fill:url(#SVGID_00000063625851408849811030000001233930347541716354_);}
	.st67{opacity:0.5;fill:url(#SVGID_00000047048288756130431140000018345454368915500437_);}
	.st68{opacity:0.5;fill:url(#SVGID_00000140732052343250526430000013449661881342377896_);}
	.st69{fill:url(#SVGID_00000046325371072223235430000004959216402089414284_);}
	.st70{fill:url(#SVGID_00000174588690294881933820000012495061609400946849_);}
	.st71{fill:url(#SVGID_00000111174457595429908690000010049583964231971485_);}
	.st72{opacity:0.5;fill:url(#SVGID_00000024001544084290033620000010481379422733622703_);}
	.st73{fill:url(#SVGID_00000036973306252161077340000004907661546876976291_);}
	.st74{fill:url(#SVGID_00000009556875132309691890000018144789110377260165_);}
	.st75{fill:url(#SVGID_00000064333214609546050160000010856667913336986770_);}
	.st76{fill:url(#SVGID_00000039812657035251065790000013799582424737532556_);}
	.st77{opacity:0.5;fill:url(#SVGID_00000154411105693625016320000007595079706234065552_);}
	.st78{opacity:0.5;fill:url(#SVGID_00000158712044274849170990000013413190726624083331_);}
	.st79{fill:url(#SVGID_00000060710177505014510920000007413011367627219121_);}
	.st80{fill:url(#SVGID_00000140700983772970162400000006534955218231364768_);}
	.st81{fill:url(#SVGID_00000066505198861936721890000015046080126702153641_);}
	.st82{opacity:0.5;fill:url(#SVGID_00000121273070640085676690000010770043185467336105_);}
	.st83{opacity:0.3;fill:url(#SVGID_00000049900031108211957980000013168516561187550655_);}
	.st84{opacity:0.3;fill:url(#SVGID_00000096056907449139316890000017613747467164409509_);}
	.st85{opacity:0.3;fill:url(#SVGID_00000063595548146924198690000018133194102002892204_);}
	.st86{opacity:0.3;fill:url(#SVGID_00000018917332472935220660000008302224329197632191_);}
	.st87{fill:url(#SVGID_00000082354195922641135460000015327296889867315086_);}
	.st88{fill:url(#SVGID_00000096767138101025025590000000003068860903923858_);}
	.st89{fill:url(#SVGID_00000084499951990065037030000011979313385727194040_);}
	.st90{fill:url(#SVGID_00000088133040243002038460000001706831843402711486_);}
	.st91{opacity:0.5;fill:url(#SVGID_00000177470257408760945820000005645696938494835342_);}
	.st92{opacity:0.5;fill:url(#SVGID_00000009559204684971225660000011057474256917797515_);}
	.st93{fill:url(#SVGID_00000047034143239660847540000004930122667636188849_);}
	.st94{opacity:0.3;fill:url(#SVGID_00000087413677632647338720000012907310680404046976_);}
	.st95{opacity:0.3;fill:url(#SVGID_00000056385813976805341940000008114265298605831850_);}
	.st96{opacity:0.3;fill:url(#SVGID_00000122714724901264170020000004092288802886763406_);}
	.st97{fill:#212474;}
	.st98{fill:url(#SVGID_00000047763353922463417380000009495901946517623176_);}
	.st99{fill:url(#SVGID_00000157307944698189540010000009553654450256391315_);}
	.st100{fill:url(#SVGID_00000160907224983410363700000002716240595703769984_);}
	.st101{fill:url(#SVGID_00000031189231768387171270000001497689889823362482_);}
	.st102{fill:url(#SVGID_00000099627190105627702000000015948634679192203188_);}
	.st103{fill:url(#SVGID_00000176742956168944898260000017666501454166747041_);}
	.st104{fill:url(#SVGID_00000158730264592637587300000003997269333097618603_);}
	.st105{fill:url(#SVGID_00000158731688178012886480000017528206754862994337_);}
	.st106{opacity:0.3;fill:url(#SVGID_00000109737020196687389500000006041079755420039102_);}
	.st107{fill:url(#SVGID_00000104671169832586881550000015032535312505238972_);}
	.st108{fill:url(#SVGID_00000039103208596832106130000002017807373227118483_);}
	.st109{opacity:0.5;fill:url(#SVGID_00000174592834667429956560000015774473003238212540_);}
	.st110{opacity:0.3;fill:url(#SVGID_00000065047815209297308050000005727990509998992264_);}
	.st111{opacity:0.3;fill:url(#SVGID_00000053536173876883111550000017217349388596985254_);}
	.st112{opacity:0.3;fill:url(#SVGID_00000035532709438775815750000017617841314677309332_);}
	.st113{opacity:0.3;fill:url(#SVGID_00000120521485921517461690000011474656884031919023_);}
	.st114{fill:url(#SVGID_00000012450954537706023030000014534238517561844639_);}
	.st115{fill:url(#SVGID_00000152243134310863373350000017369115404542081693_);}
	.st116{fill:url(#SVGID_00000011732639154067152130000015064176513134630075_);}
	.st117{fill:url(#SVGID_00000039818206174880140520000007891852067089090181_);}
	.st118{opacity:0.5;fill:url(#SVGID_00000083795114734405368590000010128824437757630610_);}
	.st119{opacity:0.5;fill:url(#SVGID_00000126301124645678521990000006924490449098938293_);}
	.st120{fill:url(#SVGID_00000009590552299751111790000012826150508869562247_);}
	.st121{opacity:0.3;fill:url(#SVGID_00000002370309019500538800000015447089793596081065_);}
	.st122{opacity:0.3;fill:url(#SVGID_00000169527950835139622000000017525277349805959852_);}
	.st123{opacity:0.3;fill:url(#SVGID_00000049181912634471571790000016629534192048043394_);}
</style>
<g transform="translate(-120.8 -164.42)">
	
		
			<radialGradient id="a" cx="-459.02" cy="-316.71" r="114.38" gradientTransform="matrix(1.2826 0 0 .4117 884.84 760.75)" gradientUnits="userSpaceOnUse">
			<stop stop-color="#77A9F2" offset=".1321"/>
			<stop stop-color="#CEE0FA" offset=".5855"/>
			<stop stop-color="#fff" offset=".8324"/>
		</radialGradient>
		<ellipse cx="296.1" cy="630.4" rx="146.7" ry="47.1" fill="url(#a)" opacity=".5"/>
		
			
				<path class="st61" d="m296.1 506c0 1.8-0.5 35.3-7.2 48.8-1.7 3.5-3.9 5.7-6.6 5.6-9.5-0.4-31.1-40.5-39.6-63.2-1.9-5.2-3.2-9.5-3.5-12.2-0.2-2 0.1-3.1 1.1-3.1 2 0 4 0 5.9 0.3 0.3 0 0.5 0.1 0.8 0.1 23.6 2.8 46.5 21.7 48.9 23.7h0.2z"/>
				<path class="st19" d="m296.1 506c-31.5 2.7-52.4-13.9-56.9-21.1-1.2-1.8-1.2-3-0.1-3.1 2.3-0.2 4.6-0.1 7.1 0.3 0.3 0 0.5 0.1 0.8 0.1 20.8 3.2 46.3 21.8 48.9 23.7l0.2 0.1z"/>
				<path class="st61" d="m353 485c-0.3 3-1.8 8.1-4.2 14.2-9 23-29.6 60.9-38.9 61.3-2.3 0.1-4.1-1.4-5.7-4-7.7-12.5-8.1-50.4-8.1-50.4s0.1 0 0.2-0.2c2.4-2 25.3-20.9 49-23.7 0.2 0 0.4 0 0.7-0.1 2-0.2 4-0.3 6-0.3 0.9 0.1 1.2 1.2 1 3.2z"/>
				<path class="st19" d="m353 485c-4.4 7.1-25.4 23.8-56.9 21.1 0 0 0.1 0 0.2-0.2 2.6-1.9 28.1-20.6 49-23.7 0.2 0 0.4 0 0.7-0.1 2.4-0.3 4.8-0.4 7.1-0.3 1.1 0.2 1.1 1.4-0.1 3.2z"/>
				<path class="st62" d="m296.1 506c0 1.8-0.5 35.3-7.2 48.8 0 0-1.9-35.4-11.3-43.4s-34.9-14.3-34.9-14.3c-1.9-5.2-3.2-9.5-3.5-12.2-1.2-1.8-1.2-3-0.1-3.1 2.3-0.2 4.6-0.1 7.1 0.3 0.3 0 0.5 0.1 0.8 0.1 23.6 2.8 46.5 21.7 48.9 23.7l0.2 0.1z"/>
				<path class="st62" d="m353 485c-0.3 3-1.8 8.1-4.2 14.2-4.4 0.9-28 6.4-36.3 20.8-7 12-8.1 28.9-8.3 36.5-7.7-12.5-8.1-50.4-8.1-50.4s0.1 0 0.2-0.2c2.4-2 25.3-20.9 49-23.7 0.2 0 0.4 0 0.7-0.1 2.4-0.3 4.8-0.4 7.1-0.3 1.1 0.2 1.1 1.4-0.1 3.2z"/>
				<path class="st61" d="m251.5 383c-0.7 6.8-2 14.4-4.2 21.9 0 0-2.1 3.1-6.2 7.8-10.3 11.7-33.4 33.7-68.9 44.8-0.9 0.3-1.7 0.5-2.6 0.8-5.7 1.7-16.3-15.5-10.8-30.2 0.5-1.4 1.2-2.8 2-4.1 2.3-3.6 6.7-8.6 12.7-14.2 15.5-14.7 41.1-33.9 63.7-45.3 5.2-2.6 10.2-4.8 14.9-6.5-0.1 0.1 0.9 10.9-0.6 25z"/>
				<path class="st19" d="m172.1 457.6c-0.6 0.7-1.3 1.4-2.1 2-8.5 6.4-21.1 2.7-14.1-23.8 0 0 0.6-3.9 2.8-7.6 1.8-3.1 4.8-6 9.5-6.4 11.7-1.1 13 25.4 3.9 35.8z"/>
				<path class="st62" d="m251.5 383-10.5 29.8c-10.3 11.7-33.4 33.7-68.9 44.8-0.6 0.7-1.3 1.4-2.1 2-8.5 6.4-21.1 2.7-14.1-23.8 0 0 0.6-3.9 2.8-7.6 0.5-1.4 1.2-2.8 2-4.1 2.3-3.6 6.7-8.6 12.7-14.2-0.4 0.8-3.5 6.9 3 9.2 6.9 2.5 43.4-6.2 59.5-23.4 16-17.2 15.5-33.2 1.3-31.1 5.2-2.6 10.2-4.8 14.9-6.5-0.1 0 0.9 10.8-0.6 24.9z"/>
				<path class="st61" d="m165.9 432.4c-9-1.6-36.4 18.2-45.1 58.2 0 0 0.6 3.2 8.7 3.5s22-14.6 31.5-23.3c9.4-8.8 20-35.6 4.9-38.4z"/>
				<path class="st19" d="m129.5 494.1s14.2-21.2 17-26.4c0 0 5.4-26.3 13.9-31.5 8.3-5.1 11.3 0.6 13.1 7.1 1.8 6.6-12 46.1-44 50.8z"/>
				<path class="st19" d="m145.9 472s3.4 7.8 7.7 9c0 0-3.6-25.5 2.7-39 0 0-8.2 12.6-10.4 30z"/>
				<path class="st61" d="m159.9 437.8s8.8-6.1 13.6 5.5c0 0-1.6 19.1-12.3 38.4 0 0-5.5 1.6-7.6-0.7-4.7-5.1-3.3-36.5 6.3-43.2z"/>
				
					<path class="st61" d="m354.1 463.9c-4.2 24.6-26.2 41-57.8 41-27.5 0-50.8-10.3-57-32.8-6.2-22.6-3.8-64.3 4.4-90.3 1.2-3.9 2.7-7.6 4.4-11.2 1.6-3.2 3.3-6.3 5.2-9.2 10-15.1 24.7-25 41.3-25 17.3 0 30.5 7.1 39.5 17.6 4.2 4.9 7.5 10.5 9.8 16.5 2.7 6.9 5 14.2 6.8 21.8v0.2c5.9 23.6 7.2 49.4 3.4 71.4z"/>
					<path class="st62" d="m354.1 463.9c-4.2 24.6-26.2 41-57.8 41-27.5 0-50.8-10.3-57-32.8-6.2-22.6-3.8-64.3 4.4-90.3 1.2-3.9 2.7-7.6 4.4-11.2 0 0-16.6 55.2-3.3 90.3s75.3 34.4 96.3 11c20-22.2 10.7-74.4 9.8-79.4 5.7 23.6 7 49.4 3.2 71.4z"/>
					<path class="st19" d="m240.5 449.3c4.7-33 31.2-55.4 60.7-52.7 31.7 3 48.8 33.3 48.3 59.3s-19.5 46.3-53.5 46.3-59.9-22-55.5-52.9z"/>
					
						<radialGradient id="e" cx="297.7" cy="490.93" r="77.368" gradientUnits="userSpaceOnUse">
						<stop stop-color="#E9BED2" offset=".1161"/>
						<stop stop-color="#C683A4" offset="1"/>
					</radialGradient>
					<path d="m240.8 452c4.7-33 31.2-55.4 60.7-52.7 31.7 3 48.8 33.3 48.3 59.3s-19.5 46.3-53.5 46.3-59.9-22-55.5-52.9z" fill="url(#e)"/>
					<path class="st19" d="m334.3 354c-6.7 10.6-43.8 16.7-65.2 14.8-18.6-1.7-15.8-6.7-15.7-7.4 10-15.1 24.7-25 41.3-25 17.4 0 30.6 7.1 39.6 17.6z"/>
				
				<path class="st19" d="m336.4 356.6s-2-2.6-4.5-3.8c0 0 7.1 35.9 21.4 50.6-0.1 0-6.2-33.9-16.9-46.8z"/>
				<path class="st19" d="m352 187.5s13.7-11.8 30.5-13.9c0 0 5.1 2.5 11.1 21 5.9 18.5-5 55-5 55z"/>
				<path class="st19" d="m382.5 173.6s-13.6 14.5-13.6 38l5.2 3.3 15.3-31.6c0.1-0.1-5-10-6.9-9.7z"/>
				
					<radialGradient id="b" cx="424.79" cy="184.27" r="49.901" gradientUnits="userSpaceOnUse">
					<stop stop-color="#E9BED2" offset=".1161"/>
					<stop stop-color="#C683A4" offset="1"/>
				</radialGradient>
				<path d="m373.7 213.3s-3.6-20 9.6-34.7c0 0 14.9 7 21 33 6.2 26-9.9 41.6-9.9 41.6z" fill="url(#b)"/>
				<path class="st19" d="m237.1 190.4s-13.7-11.8-30.5-13.9c0 0-5.1 2.5-11.1 21-5.9 18.5 5 55 5 55z"/>
				<path class="st19" d="m206.7 176.6s13.6 14.5 13.6 38l-5.2 3.3-15.3-31.6c-0.1-0.1 5-10 6.9-9.7z"/>
				
					<radialGradient id="g" cx="176.15" cy="182.89" r="59.462" gradientUnits="userSpaceOnUse">
					<stop stop-color="#E9BED2" offset=".1161"/>
					<stop stop-color="#C683A4" offset="1"/>
				</radialGradient>
				<path d="m215.5 216.2s3.6-20-9.6-34.7c0 0-14.9 7-21 33s11.6 43.3 11.6 43.3z" fill="url(#g)"/>
				<path class="st61" d="m198.7 317c21 48.4 178 33.3 196.8-6.5 20.5-43.5-26.7-151-101.9-145.9-63.7 4.2-121.9 90.2-94.9 152.4z"/>
				
					<linearGradient id="h" x1="295.25" x2="295.25" y1="213.28" y2="322.4" gradientUnits="userSpaceOnUse">
					<stop stop-color="#212474" offset="0"/>
					<stop stop-color="#619AFC" offset=".883"/>
				</linearGradient>
				<path d="m207.3 310.2c20.1 39.7 157.1 33.1 177.2-3.4 17-31-23.2-125.4-92-122-68.9 3.4-104.4 87.3-85.2 125.4z" fill="url(#h)"/>
				
					<linearGradient id="c" x1="231.4" x2="365.87" y1="218.82" y2="218.82" gradientUnits="userSpaceOnUse">
					<stop offset="0"/>
					<stop stop-color="#7A99FB" offset="1"/>
				</linearGradient>
				<path d="m231.5 224.6c-1.6 9.5 16.3 8.4 45 7.4 34.4-1.1 69 28.5 89.2 7.2 3.3-3.5-29.6-49.5-69.4-48.5-39.9 1.1-63.4 25.7-64.8 33.9z" fill="url(#c)" opacity=".5"/>
				
					<linearGradient id="d" x1="249.08" x2="346.86" y1="326.37" y2="326.37" gradientUnits="userSpaceOnUse">
					<stop offset="0"/>
					<stop stop-color="#7A99FB" offset="1"/>
				</linearGradient>
				<path d="m249.2 323.2c-1.8 6.9 12.5 13.7 47.8 12 42.6-2.1 51.7-11 49.6-13.5-1.3-1.5-14 6.6-49-1.1-23.2-5.1-46.5-4.6-48.4 2.6z" fill="url(#d)" opacity=".5"/>
				<path class="st19" d="m214.1 333.3s2.1-2.3 13.5-9c7.6-4.5 15.6-9.8 16.8-11.7 1.7-4.6-32.6-1.9-32.6-1.9l-13.1 6.3s5.1 10.2 15.4 16.3z"/>
				<path class="st14" d="m187.9 232.1s8.9 5.7 3 18.9c0 0-41.4 22.5-39 47.1 2 20.5 59.2 10.6 59.2 10.6l2.1 6.8s-48.6 9.5-65.3-1.9c0 0-5.7-13.5 8.4-37.9 14.1-24.5 31.6-43.6 31.6-43.6z"/>
				<path class="st14" d="m203.9 306.8c-5.2 5.9 5.8 12.3 14.9 13.3 10.2 1.1 28.3-2.9 27.2-13.2s-29.9-14-42.1-0.1z"/>
				<path class="st19" d="m335.2 342.3s-22.5-22.7-29.7-45.4l56.3 37.1s-19.1 6.7-26.6 8.3z"/>
				<path class="st38" d="m232.8 253.2s18.2-2.7 36 2.7c2.6 0.8-5.5-8.8-18-10.5-12.4-1.8-18.8 3.5-18 7.8z"/>
				<path class="st38" d="m276.4 291.8c3.1-9.4 14.9-9 17.4-0.6 2.6 9-7.8 19.3-12.5 17.7-4.8-1.6-7.2-10.2-4.9-17.1z"/>
				
					<linearGradient id="f" x1="356.54" x2="352.77" y1="219.65" y2="353.42" gradientUnits="userSpaceOnUse">
					<stop stop-color="#212474" offset="0"/>
					<stop stop-color="#619AFC" offset=".883"/>
				</linearGradient>
				<path d="m307.5 280.1c-11.1-30.8 18.1-70.4 63-75.4 0 0 42.6 27.4 32.7 103.1 0-0.1-66.9 52.2-95.7-27.7z" fill="url(#f)"/>
				<path class="st61" d="m370.5 204.7s15.2 0.1 33 15 26.3 58.4-0.3 88.1c0-0.1 11.9-60.9-32.7-103.1z"/>
				<path class="st38" d="m333.4 270c1.3 14.1 43.2 12.7 49.9 0 5.4-10.2-10.3-43.6-27-41.2s-24.8 21.4-22.9 41.2z"/>
				<path class="st14" d="m364.5 200.7c-35.8 0-64.8 29-64.8 64.8s29 64.8 64.8 64.8 64.8-29 64.8-64.8c-0.1-35.8-29.1-64.8-64.8-64.8zm0 118.7c-29.8 0-53.9-24.1-53.9-53.9s24.1-53.9 53.9-53.9 53.9 24.1 53.9 53.9-24.2 53.9-53.9 53.9z"/>
				<path class="st61" d="m436.6 366s-14 26.5-31.9 35.3c-17.8 8.8-45-1.8-53.7-8.8-12-9.5-16.4-42.4-11.3-42.4 4.6 0 9.1 3.5 23.6 5.3 3.9 0.5 8.6 0.9 14.1 1 13.2 0.4 25.5-2.8 33.4-5.5 5.8-2 9.3-3.7 9.3-3.7 10.6 0 16.5 18.8 16.5 18.8z"/>
				<path class="st19" d="m418.4 348.4s-1.3 19.5 6.2 22.2 12-4.6 12-4.6l3.7-7.9z"/>
				<path class="st14" d="m393.1 322.8s28.9 31.3 47.2 43.2c0 0 11.3-1.4 13.6-12.6l-41.1-48.3z"/>
				<path class="st61" d="m410.6 341c-0.4 1.6-11.3 4.6-14.2-1.2-0.3-0.6-0.5-1.2-0.7-1.7-1.7-5 0.7-8.9 3-10.1l0.2 0.2c1.4 1.5 12 11.4 11.7 12.8z"/>
				<path class="st61" d="m443.1 340.9-5.3-6.1s-17.9-8.9-21.5-24.8c0 0 4.2-8.5 13-8.8 3.5-0.1 6.7 4.5 9.1 10.8 3.7 9.5 5.7 22.7 4.7 28.9z"/>
				<path class="st62" d="m436.6 366s-14 26.5-31.9 35.3c-17.8 8.8-45-1.8-53.7-8.8-12-9.5-16.4-42.4-11.3-42.4 4.6 0 9.1 3.5 23.6 5.3-0.9-0.1-13.3-0.9-15.5 2.6-2.3 3.6 22.7 40.1 47.6 30 24.9-10.2 19.8-36.9 15.6-37 5.8-2 9.3-3.7 9.3-3.7 10.4-0.1 16.3 18.7 16.3 18.7z"/>
				<path class="st62" d="m410.6 341c-0.4 1.6-11.3 4.6-14.2-1.2-0.3-0.6-0.5-1.2-0.7-1.7 2.4 3 6.1 2.5 7.2-0.8 1.1-3.2-3.1-8-4.1-9 1.5 1.4 12.1 11.3 11.8 12.7z"/>
				<path class="st62" d="m443.1 340.9-5.3-6.1s-17.9-8.9-21.5-24.8c0.4 0.9 9 14.2 18.2 15.5 6.8 0.9 4.1-12.6 3.9-13.5 3.7 9.5 5.7 22.7 4.7 28.9z"/>
			
		
	
</g>
</svg>
